# xmcd
#
# Track frame offsets: 
#        150
#        27758
#        55949
#        85889
#        107879
#
# Disc length: 3537 seconds
#
# Revision: 0
# Processed by: cddbd v1.5.2PL0 Copyright (c) Steve Scherf et al.
# Submitted via: ExactAudioCopy v0.95b3
#
DISCID=370dcf05
DTITLE=Quicksilver Messenger Service   - Family Dog at the Beach 8-70 
DTITLE=FLAC
DYEAR=1900
DGENRE=
TTITLE0=I'd rather be lonely (fade in)
TTITLE1=Freeway flyer
TTITLE2=I believe
TTITLE3=Cobra
TTITLE4=Who do you love
EXTD=
EXTT0=
EXTT1=
EXTT2=
EXTT3=
EXTT4=
PLAYORDER=
